<svg width="128" height="23" viewBox="0 0 128 23" fill="none" xmlns="http://www.w3.org/2000/svg">
<path d="M0 4C0 2.34315 1.34315 1 3 1H33V22H3C1.34314 22 0 20.6569 0 19V4Z" fill="black"/>
<path d="M128 19C128 20.6569 126.657 22 125 22L27 22V1L125 1C126.657 1 128 2.34315 128 4V19Z" fill="#8461A9"/>
<path fill-rule="evenodd" clip-rule="evenodd" d="M10.25 17.1304C12.1929 16.0065 13.5 13.9059 13.5 11.5C13.5 9.09408 12.1929 6.99346 10.25 5.86958C11.2061 5.31653 12.3161 5 13.5 5C17.0899 5 20 7.91015 20 11.5C20 15.0899 17.0899 18 13.5 18C12.3161 18 11.2061 17.6835 10.25 17.1304ZM18.375 11.5C18.375 12.3975 17.6475 13.125 16.75 13.125C15.8525 13.125 15.125 12.3975 15.125 11.5C15.125 10.6025 15.8525 9.875 16.75 9.875C17.6475 9.875 18.375 10.6025 18.375 11.5ZM10.25 13.125C11.1475 13.125 11.875 12.3975 11.875 11.5C11.875 10.6025 11.1475 9.875 10.25 9.875C9.35254 9.875 8.625 10.6025 8.625 11.5C8.625 12.3975 9.35254 13.125 10.25 13.125Z" fill="white"/>
<path d="M32.258 17V6.696H37.25C38.274 6.696 39.0313 6.936 39.522 7.416C40.0127 7.896 40.258 8.57333 40.258 9.448C40.258 10.0027 40.146 10.472 39.922 10.856C39.698 11.2293 39.3993 11.512 39.026 11.704C39.5273 11.8427 39.922 12.0933 40.21 12.456C40.5087 12.808 40.658 13.3307 40.658 14.024C40.658 15.0267 40.386 15.7733 39.842 16.264C39.3087 16.7547 38.5193 17 37.474 17H32.258ZM34.002 11.096H37.01C37.5967 11.096 38.0127 10.9627 38.258 10.696C38.514 10.4187 38.642 10.0507 38.642 9.592C38.642 9.05867 38.514 8.664 38.258 8.408C38.002 8.14133 37.522 8.008 36.818 8.008H34.002V11.096ZM34.002 15.72H37.106C37.7247 15.72 38.178 15.592 38.466 15.336C38.754 15.0693 38.898 14.6107 38.898 13.96C38.898 13.4267 38.754 13.032 38.466 12.776C38.1887 12.5093 37.6767 12.376 36.93 12.376H34.002V15.72ZM42.3518 17V6.696H44.1438L47.4078 13.368L50.6558 6.696H52.4478V17H50.7198V9.528L47.9358 15.224H46.8798L44.0798 9.528V17H42.3518ZM56.8988 17L53.9068 9.416H55.7148L57.8428 15.304L59.9708 9.416H61.7628L58.7868 17H56.8988ZM66.0848 17.16C65.7754 17.16 65.4341 17.1387 65.0608 17.096C64.6874 17.064 64.3301 17.0107 63.9888 16.936C63.6581 16.8613 63.3808 16.7813 63.1568 16.696V15.176C63.5834 15.3467 64.0208 15.4747 64.4688 15.56C64.9274 15.6347 65.3861 15.672 65.8448 15.672C66.6768 15.672 67.2954 15.5493 67.7008 15.304C68.1061 15.0587 68.3088 14.6267 68.3088 14.008C68.3088 13.4533 68.1221 13.0533 67.7488 12.808C67.3861 12.5627 66.8634 12.44 66.1808 12.44H64.6288L64.7728 11.144H66.0688C67.4234 11.144 68.1008 10.6107 68.1008 9.544C68.1008 9.02133 67.9194 8.63733 67.5568 8.392C67.2048 8.14667 66.6341 8.024 65.8448 8.024C65.4074 8.024 64.9648 8.06667 64.5168 8.152C64.0794 8.23733 63.6901 8.35467 63.3488 8.504V7.016C63.6688 6.888 64.0848 6.776 64.5968 6.68C65.1088 6.584 65.6154 6.536 66.1168 6.536C67.3754 6.536 68.3088 6.80267 68.9168 7.336C69.5354 7.86933 69.8448 8.552 69.8448 9.384C69.8448 9.896 69.7168 10.376 69.4608 10.824C69.2154 11.272 68.8261 11.592 68.2928 11.784C68.9114 11.944 69.3594 12.232 69.6368 12.648C69.9248 13.064 70.0688 13.5547 70.0688 14.12C70.0688 15.1547 69.7061 15.9227 68.9808 16.424C68.2554 16.9147 67.2901 17.16 66.0848 17.16ZM75.4611 17V6.696H80.1971C81.3491 6.696 82.1865 6.99467 82.7091 7.592C83.2425 8.17867 83.5091 8.97867 83.5091 9.992C83.5091 10.7173 83.3278 11.336 82.9651 11.848C82.6025 12.36 82.0798 12.7173 81.3971 12.92C81.5891 13.0587 81.7385 13.208 81.8451 13.368C81.9518 13.528 82.0585 13.7413 82.1651 14.008L83.4611 17H81.6691L80.4051 14.12C80.2878 13.8427 80.1438 13.6453 79.9731 13.528C79.8131 13.4107 79.5358 13.352 79.1411 13.352H77.2051V17H75.4611ZM77.2051 11.944H79.7331C80.3625 11.944 80.8585 11.7893 81.2211 11.48C81.5838 11.1707 81.7651 10.6747 81.7651 9.992C81.7651 8.70133 81.1411 8.056 79.8931 8.056H77.2051V11.944ZM85.2268 17V6.696H92.4108V8.056H86.9708V11.176H91.8188V12.52H86.9708V15.656H92.4108V17H85.2268ZM93.7196 17L97.6556 6.696H99.6076L103.512 17H101.72L100.696 14.344H96.5516L95.5276 17H93.7196ZM96.8236 13H100.408L98.6156 8.28L96.8236 13ZM105.227 17V6.696H109.403C110.928 6.696 112.059 7.10133 112.795 7.912C113.531 8.712 113.899 10.0453 113.899 11.912C113.899 13.672 113.536 14.9627 112.811 15.784C112.085 16.5947 110.949 17 109.403 17H105.227ZM106.971 15.656H109.131C109.803 15.656 110.363 15.56 110.811 15.368C111.259 15.1653 111.595 14.792 111.819 14.248C112.043 13.704 112.155 12.9253 112.155 11.912C112.155 10.8987 112.053 10.1147 111.851 9.56C111.648 9.00533 111.323 8.616 110.875 8.392C110.437 8.168 109.856 8.056 109.131 8.056H106.971V15.656ZM117.634 17V13.176L113.938 6.696H115.746L118.498 11.704L121.25 6.696H123.058L119.362 13.176V17H117.634Z" fill="white"/>
</svg>
