<svg width="129" height="20" viewBox="0 0 129 20" fill="none" xmlns="http://www.w3.org/2000/svg">
<path d="M0 3C0 1.34315 1.34315 0 3 0H34V20H3C1.34315 20 0 18.6569 0 17V3Z" fill="black"/>
<path d="M129 17C129 18.6569 127.657 20 126 20L28 20V0L126 0C127.657 0 129 1.34315 129 3V17Z" fill="#8461A9"/>
<path fill-rule="evenodd" clip-rule="evenodd" d="M10 16.9297C12.3912 15.5465 14 12.9611 14 10C14 7.03887 12.3912 4.4535 10 3.07026C11.1767 2.38958 12.5429 2 14 2C18.4183 2 22 5.58172 22 10C22 14.4183 18.4183 18 14 18C12.5429 18 11.1767 17.6104 10 16.9297ZM20 10C20 11.1046 19.1046 12 18 12C16.8954 12 16 11.1046 16 10C16 8.89543 16.8954 8 18 8C19.1046 8 20 8.89543 20 10ZM10 12C11.1046 12 12 11.1046 12 10C12 8.89543 11.1046 8 10 8C8.89543 8 8 8.89543 8 10C8 11.1046 8.89543 12 10 12Z" fill="white"/>
<path d="M33.258 16V5.696H38.25C39.274 5.696 40.0313 5.936 40.522 6.416C41.0127 6.896 41.258 7.57333 41.258 8.448C41.258 9.00267 41.146 9.472 40.922 9.856C40.698 10.2293 40.3993 10.512 40.026 10.704C40.5273 10.8427 40.922 11.0933 41.21 11.456C41.5087 11.808 41.658 12.3307 41.658 13.024C41.658 14.0267 41.386 14.7733 40.842 15.264C40.3087 15.7547 39.5193 16 38.474 16H33.258ZM35.002 10.096H38.01C38.5967 10.096 39.0127 9.96267 39.258 9.696C39.514 9.41867 39.642 9.05067 39.642 8.592C39.642 8.05867 39.514 7.664 39.258 7.408C39.002 7.14133 38.522 7.008 37.818 7.008H35.002V10.096ZM35.002 14.72H38.106C38.7247 14.72 39.178 14.592 39.466 14.336C39.754 14.0693 39.898 13.6107 39.898 12.96C39.898 12.4267 39.754 12.032 39.466 11.776C39.1887 11.5093 38.6767 11.376 37.93 11.376H35.002V14.72ZM43.3518 16V5.696H45.1438L48.4078 12.368L51.6558 5.696H53.4478V16H51.7198V8.528L48.9358 14.224H47.8798L45.0798 8.528V16H43.3518ZM57.8988 16L54.9068 8.416H56.7148L58.8428 14.304L60.9708 8.416H62.7628L59.7868 16H57.8988ZM67.0848 16.16C66.7754 16.16 66.4341 16.1387 66.0608 16.096C65.6874 16.064 65.3301 16.0107 64.9888 15.936C64.6581 15.8613 64.3808 15.7813 64.1568 15.696V14.176C64.5834 14.3467 65.0208 14.4747 65.4688 14.56C65.9274 14.6347 66.3861 14.672 66.8448 14.672C67.6768 14.672 68.2954 14.5493 68.7008 14.304C69.1061 14.0587 69.3088 13.6267 69.3088 13.008C69.3088 12.4533 69.1221 12.0533 68.7488 11.808C68.3861 11.5627 67.8634 11.44 67.1808 11.44H65.6288L65.7728 10.144H67.0688C68.4234 10.144 69.1008 9.61067 69.1008 8.544C69.1008 8.02133 68.9194 7.63733 68.5568 7.392C68.2048 7.14667 67.6341 7.024 66.8448 7.024C66.4074 7.024 65.9648 7.06667 65.5168 7.152C65.0794 7.23733 64.6901 7.35467 64.3488 7.504V6.016C64.6688 5.888 65.0848 5.776 65.5968 5.68C66.1088 5.584 66.6154 5.536 67.1168 5.536C68.3754 5.536 69.3088 5.80267 69.9168 6.336C70.5354 6.86933 70.8448 7.552 70.8448 8.384C70.8448 8.896 70.7168 9.376 70.4608 9.824C70.2154 10.272 69.8261 10.592 69.2928 10.784C69.9114 10.944 70.3594 11.232 70.6368 11.648C70.9248 12.064 71.0688 12.5547 71.0688 13.12C71.0688 14.1547 70.7061 14.9227 69.9808 15.424C69.2554 15.9147 68.2901 16.16 67.0848 16.16ZM76.4611 16V5.696H81.1971C82.3491 5.696 83.1865 5.99467 83.7091 6.592C84.2425 7.17867 84.5091 7.97867 84.5091 8.992C84.5091 9.71733 84.3278 10.336 83.9651 10.848C83.6025 11.36 83.0798 11.7173 82.3971 11.92C82.5891 12.0587 82.7385 12.208 82.8451 12.368C82.9518 12.528 83.0585 12.7413 83.1651 13.008L84.4611 16H82.6691L81.4051 13.12C81.2878 12.8427 81.1438 12.6453 80.9731 12.528C80.8131 12.4107 80.5358 12.352 80.1411 12.352H78.2051V16H76.4611ZM78.2051 10.944H80.7331C81.3625 10.944 81.8585 10.7893 82.2211 10.48C82.5838 10.1707 82.7651 9.67467 82.7651 8.992C82.7651 7.70133 82.1411 7.056 80.8931 7.056H78.2051V10.944ZM86.2268 16V5.696H93.4108V7.056H87.9708V10.176H92.8188V11.52H87.9708V14.656H93.4108V16H86.2268ZM94.7196 16L98.6556 5.696H100.608L104.512 16H102.72L101.696 13.344H97.5516L96.5276 16H94.7196ZM97.8236 12H101.408L99.6156 7.28L97.8236 12ZM106.227 16V5.696H110.403C111.928 5.696 113.059 6.10133 113.795 6.912C114.531 7.712 114.899 9.04533 114.899 10.912C114.899 12.672 114.536 13.9627 113.811 14.784C113.085 15.5947 111.949 16 110.403 16H106.227ZM107.971 14.656H110.131C110.803 14.656 111.363 14.56 111.811 14.368C112.259 14.1653 112.595 13.792 112.819 13.248C113.043 12.704 113.155 11.9253 113.155 10.912C113.155 9.89867 113.053 9.11467 112.851 8.56C112.648 8.00533 112.323 7.616 111.875 7.392C111.437 7.168 110.856 7.056 110.131 7.056H107.971V14.656ZM118.634 16V12.176L114.938 5.696H116.746L119.498 10.704L122.25 5.696H124.058L120.362 12.176V16H118.634Z" fill="white"/>
</svg>
