<svg width="129" height="20" viewBox="0 0 129 20" fill="none" xmlns="http://www.w3.org/2000/svg">
<path d="M0 3C0 1.34315 1.34315 0 3 0H34V20H3C1.34315 20 0 18.6569 0 17V3Z" fill="black"/>
<path d="M129 17C129 18.6569 127.657 20 126 20L28 20V0L126 0C127.657 0 129 1.34315 129 3V17Z" fill="#8461A9"/>
<path fill-rule="evenodd" clip-rule="evenodd" d="M10 16.9297C12.3912 15.5465 14 12.9611 14 10C14 7.03887 12.3912 4.4535 10 3.07026C11.1767 2.38958 12.5429 2 14 2C18.4183 2 22 5.58172 22 10C22 14.4183 18.4183 18 14 18C12.5429 18 11.1767 17.6104 10 16.9297ZM20 10C20 11.1046 19.1046 12 18 12C16.8954 12 16 11.1046 16 10C16 8.89543 16.8954 8 18 8C19.1046 8 20 8.89543 20 10ZM10 12C11.1046 12 12 11.1046 12 10C12 8.89543 11.1046 8 10 8C8.89543 8 8 8.89543 8 10C8 11.1046 8.89543 12 10 12Z" fill="white"/>
<path d="M33.258 15V4.696H38.25C39.274 4.696 40.0313 4.936 40.522 5.416C41.0127 5.896 41.258 6.57333 41.258 7.448C41.258 8.00267 41.146 8.472 40.922 8.856C40.698 9.22933 40.3993 9.512 40.026 9.704C40.5273 9.84267 40.922 10.0933 41.21 10.456C41.5087 10.808 41.658 11.3307 41.658 12.024C41.658 13.0267 41.386 13.7733 40.842 14.264C40.3087 14.7547 39.5193 15 38.474 15H33.258ZM35.002 9.096H38.01C38.5967 9.096 39.0127 8.96267 39.258 8.696C39.514 8.41867 39.642 8.05067 39.642 7.592C39.642 7.05867 39.514 6.664 39.258 6.408C39.002 6.14133 38.522 6.008 37.818 6.008H35.002V9.096ZM35.002 13.72H38.106C38.7247 13.72 39.178 13.592 39.466 13.336C39.754 13.0693 39.898 12.6107 39.898 11.96C39.898 11.4267 39.754 11.032 39.466 10.776C39.1887 10.5093 38.6767 10.376 37.93 10.376H35.002V13.72ZM43.3518 15V4.696H45.1438L48.4078 11.368L51.6558 4.696H53.4478V15H51.7198V7.528L48.9358 13.224H47.8798L45.0798 7.528V15H43.3518ZM57.8988 15L54.9068 7.416H56.7148L58.8428 13.304L60.9708 7.416H62.7628L59.7868 15H57.8988ZM67.0848 15.16C66.7754 15.16 66.4341 15.1387 66.0608 15.096C65.6874 15.064 65.3301 15.0107 64.9888 14.936C64.6581 14.8613 64.3808 14.7813 64.1568 14.696V13.176C64.5834 13.3467 65.0208 13.4747 65.4688 13.56C65.9274 13.6347 66.3861 13.672 66.8448 13.672C67.6768 13.672 68.2954 13.5493 68.7008 13.304C69.1061 13.0587 69.3088 12.6267 69.3088 12.008C69.3088 11.4533 69.1221 11.0533 68.7488 10.808C68.3861 10.5627 67.8634 10.44 67.1808 10.44H65.6288L65.7728 9.144H67.0688C68.4234 9.144 69.1008 8.61067 69.1008 7.544C69.1008 7.02133 68.9194 6.63733 68.5568 6.392C68.2048 6.14667 67.6341 6.024 66.8448 6.024C66.4074 6.024 65.9648 6.06667 65.5168 6.152C65.0794 6.23733 64.6901 6.35467 64.3488 6.504V5.016C64.6688 4.888 65.0848 4.776 65.5968 4.68C66.1088 4.584 66.6154 4.536 67.1168 4.536C68.3754 4.536 69.3088 4.80267 69.9168 5.336C70.5354 5.86933 70.8448 6.552 70.8448 7.384C70.8448 7.896 70.7168 8.376 70.4608 8.824C70.2154 9.272 69.8261 9.592 69.2928 9.784C69.9114 9.944 70.3594 10.232 70.6368 10.648C70.9248 11.064 71.0688 11.5547 71.0688 12.12C71.0688 13.1547 70.7061 13.9227 69.9808 14.424C69.2554 14.9147 68.2901 15.16 67.0848 15.16ZM76.4611 15V4.696H81.1971C82.3491 4.696 83.1865 4.99467 83.7091 5.592C84.2425 6.17867 84.5091 6.97867 84.5091 7.992C84.5091 8.71733 84.3278 9.336 83.9651 9.848C83.6025 10.36 83.0798 10.7173 82.3971 10.92C82.5891 11.0587 82.7385 11.208 82.8451 11.368C82.9518 11.528 83.0585 11.7413 83.1651 12.008L84.4611 15H82.6691L81.4051 12.12C81.2878 11.8427 81.1438 11.6453 80.9731 11.528C80.8131 11.4107 80.5358 11.352 80.1411 11.352H78.2051V15H76.4611ZM78.2051 9.944H80.7331C81.3625 9.944 81.8585 9.78933 82.2211 9.48C82.5838 9.17067 82.7651 8.67467 82.7651 7.992C82.7651 6.70133 82.1411 6.056 80.8931 6.056H78.2051V9.944ZM86.2268 15V4.696H93.4108V6.056H87.9708V9.176H92.8188V10.52H87.9708V13.656H93.4108V15H86.2268ZM94.7196 15L98.6556 4.696H100.608L104.512 15H102.72L101.696 12.344H97.5516L96.5276 15H94.7196ZM97.8236 11H101.408L99.6156 6.28L97.8236 11ZM106.227 15V4.696H110.403C111.928 4.696 113.059 5.10133 113.795 5.912C114.531 6.712 114.899 8.04533 114.899 9.912C114.899 11.672 114.536 12.9627 113.811 13.784C113.085 14.5947 111.949 15 110.403 15H106.227ZM107.971 13.656H110.131C110.803 13.656 111.363 13.56 111.811 13.368C112.259 13.1653 112.595 12.792 112.819 12.248C113.043 11.704 113.155 10.9253 113.155 9.912C113.155 8.89867 113.053 8.11467 112.851 7.56C112.648 7.00533 112.323 6.616 111.875 6.392C111.437 6.168 110.856 6.056 110.131 6.056H107.971V13.656ZM118.634 15V11.176L114.938 4.696H116.746L119.498 9.704L122.25 4.696H124.058L120.362 11.176V15H118.634Z" fill="white"/>
</svg>
