<svg width="61" height="60" viewBox="0 0 61 60" fill="none" xmlns="http://www.w3.org/2000/svg">
<g clip-path="url(#clip0_1525_81206)">
<path d="M17.5 16L20.4886 27.1536L28.6535 18.9886L17.5 16ZM31 29.5L31.7071 30.2071L32.4142 29.5L31.7071 28.7929L31 29.5ZM17.5 43L28.6535 40.0114L20.4886 31.8464L17.5 43ZM23.1569 23.0711L30.2929 30.2071L31.7071 28.7929L24.5711 21.6569L23.1569 23.0711ZM30.2929 28.7929L23.1569 35.9289L24.5711 37.3431L31.7071 30.2071L30.2929 28.7929Z" fill="black"/>
<path d="M44.391 16L41.4024 27.1536L33.2374 18.9886L44.391 16ZM30.891 29.5L30.1839 30.2071L29.4768 29.5L30.1839 28.7929L30.891 29.5ZM44.391 43L33.2374 40.0114L41.4024 31.8464L44.391 43ZM38.7341 23.0711L31.5981 30.2071L30.1839 28.7929L37.3199 21.6569L38.7341 23.0711ZM31.5981 28.7929L38.7341 35.9289L37.3199 37.3431L30.1839 30.2071L31.5981 28.7929Z" fill="black"/>
</g>
<path d="M1 0V-0.5H0.5V0H1ZM61 0H61.5V-0.5H61V0ZM61 60V60.5H61.5V60H61ZM1 60H0.5V60.5H1V60ZM1 0.5H61V-0.5H1V0.5ZM60.5 0V60H61.5V0H60.5ZM61 59.5H1V60.5H61V59.5ZM1.5 60V0H0.5V60H1.5Z" fill="black"/>
<defs>
<clipPath id="clip0_1525_81206">
<rect width="50" height="50" fill="white" transform="translate(6 5)"/>
</clipPath>
</defs>
</svg>
