<svg id="Ebene_1" data-name="Ebene 1" xmlns="http://www.w3.org/2000/svg" viewBox="0 0 36 36"><polygon points="30.16 19.36 33.44 16.03 26.88 16.03 30.16 19.36"/><polygon points="30.09 8.02 26.88 11.35 33.44 11.35 30.09 8.02"/><polygon points="30.16 27.5 33.44 24.17 26.88 24.17 30.16 27.5"/><polygon points="2.79 12.98 4.79 12.98 4.79 6.68 24.46 6.68 24.46 4.68 2.79 4.68 2.79 12.98"/><polygon points="2.79 21.12 4.79 21.12 4.79 18.03 24.46 18.03 24.46 16.03 2.79 16.03 2.79 21.12"/><polygon points="2.79 28.61 4.79 28.61 4.79 26.17 24.46 26.17 24.46 24.17 2.79 24.17 2.79 28.61"/></svg>