<?xml version="1.0" encoding="UTF-8" standalone="no"?>
<svg width="36" height="36" viewBox="0 0 36 36" xmlns="http://www.w3.org/2000/svg">
  <g clip-path="url(#clip0_5704_67)" transform="matrix(0.72424773,0,0,0.72424773,-0.006815,0.49090202)">
    <path d="m 11.5,11 2.9886,11.1536 8.1649,-8.165 z M 25,24.5 25.7071,25.2071 26.4142,24.5 25.7071,23.7929 Z M 11.5,38 22.6535,35.0114 14.4886,26.8464 Z m 5.6569,-19.9289 7.136,7.136 1.4142,-1.4142 -7.136,-7.136 z m 7.136,5.7218 -7.136,7.136 1.4142,1.4142 7.136,-7.136 z"/>
    <path d="m 38.391,11 -2.9886,11.1536 -8.165,-8.165 z m -13.5,13.5 -0.7071,0.7071 -0.7071,-0.7071 0.7071,-0.7071 z m 13.5,13.5 -11.1536,-2.9886 8.165,-8.165 z m -5.6569,-19.9289 -7.136,7.136 -1.4142,-1.4142 7.136,-7.136 z m -7.136,5.7218 7.136,7.136 -1.4142,1.4142 -7.136,-7.136 z"/>
  </g>
</svg>
