<svg width="160" height="32" viewBox="0 0 160 32" fill="none" xmlns="http://www.w3.org/2000/svg">
<path d="M5.27131 19.9773L5.28267 14.1705H5.98722L11.5781 7.54545H17.1349L9.62358 16.3182H8.47585L5.27131 19.9773ZM0.884943 25V1.72727H5.72585V25H0.884943ZM11.794 25L6.65767 17.3977L9.88494 13.9773L17.4645 25H11.794ZM19.5099 25V7.54545H24.3509V25H19.5099ZM21.9418 5.29545C21.2221 5.29545 20.6046 5.05682 20.0895 4.57954C19.5819 4.0947 19.3281 3.51515 19.3281 2.84091C19.3281 2.17424 19.5819 1.60227 20.0895 1.125C20.6046 0.640151 21.2221 0.397726 21.9418 0.397726C22.6615 0.397726 23.2751 0.640151 23.7827 1.125C24.2978 1.60227 24.5554 2.17424 24.5554 2.84091C24.5554 3.51515 24.2978 4.0947 23.7827 4.57954C23.2751 5.05682 22.6615 5.29545 21.9418 5.29545ZM37.5128 7.54545V11.1818H27.0014V7.54545H37.5128ZM29.3878 3.36364H34.2287V19.6364C34.2287 20.0833 34.2969 20.4318 34.4332 20.6818C34.5696 20.9242 34.759 21.0947 35.0014 21.1932C35.2514 21.2917 35.5393 21.3409 35.8651 21.3409C36.0923 21.3409 36.3196 21.322 36.5469 21.2841C36.7741 21.2386 36.9484 21.2045 37.0696 21.1818L37.831 24.7841C37.5885 24.8598 37.2476 24.947 36.8082 25.0455C36.3688 25.1515 35.8348 25.2159 35.206 25.2386C34.0393 25.2841 33.0166 25.1288 32.1378 24.7727C31.2666 24.4167 30.5885 23.8636 30.1037 23.1136C29.6188 22.3636 29.3802 21.4167 29.3878 20.2727V3.36364ZM48.223 25.3636C46.6624 25.3636 45.3026 24.9735 44.1435 24.1932C42.992 23.4129 42.098 22.3447 41.4616 20.9886C40.8253 19.6326 40.5071 18.0871 40.5071 16.3523C40.5071 14.6023 40.8291 13.0455 41.473 11.6818C42.1245 10.3182 43.026 9.25 44.1776 8.47727C45.3291 7.69697 46.6662 7.30682 48.1889 7.30682C49.3556 7.30682 50.4124 7.53409 51.3594 7.98864C52.3063 8.43561 53.0866 9.06818 53.7003 9.88636C54.3215 10.697 54.7116 11.6439 54.8707 12.7273H52.8253C52.6132 11.7424 52.1018 10.9015 51.2912 10.2045C50.4882 9.5 49.4654 9.14773 48.223 9.14773C47.1094 9.14773 46.1245 9.45076 45.2685 10.0568C44.4124 10.6553 43.742 11.4924 43.2571 12.5682C42.7798 13.6364 42.5412 14.875 42.5412 16.2841C42.5412 17.7008 42.776 18.9545 43.2457 20.0455C43.7154 21.1288 44.3745 21.9773 45.223 22.5909C46.0791 23.2045 47.0791 23.5114 48.223 23.5114C48.9957 23.5114 49.7003 23.3674 50.3366 23.0795C50.9806 22.7841 51.5185 22.3674 51.9503 21.8295C52.3897 21.2917 52.6851 20.6515 52.8366 19.9091H54.8821C54.7306 20.9621 54.3556 21.9015 53.7571 22.7273C53.1662 23.5455 52.3973 24.1894 51.4503 24.6591C50.5109 25.1288 49.4351 25.3636 48.223 25.3636ZM66.0014 25.3636C64.4938 25.3636 63.1605 24.9811 62.0014 24.2159C60.8499 23.4508 59.9484 22.3939 59.2969 21.0455C58.6454 19.6894 58.3196 18.125 58.3196 16.3523C58.3196 14.5644 58.6454 12.9924 59.2969 11.6364C59.9484 10.2727 60.8499 9.21212 62.0014 8.45454C63.1605 7.68939 64.4938 7.30682 66.0014 7.30682C67.509 7.30682 68.8385 7.68939 69.9901 8.45454C71.1416 9.2197 72.0431 10.2803 72.6946 11.6364C73.3537 12.9924 73.6832 14.5644 73.6832 16.3523C73.6832 18.125 73.3575 19.6894 72.706 21.0455C72.0545 22.3939 71.1491 23.4508 69.9901 24.2159C68.8385 24.9811 67.509 25.3636 66.0014 25.3636ZM66.0014 23.5114C67.2135 23.5114 68.2401 23.1856 69.081 22.5341C69.9219 21.8826 70.5582 21.0152 70.9901 19.9318C71.4295 18.8485 71.6491 17.6553 71.6491 16.3523C71.6491 15.0492 71.4295 13.8523 70.9901 12.7614C70.5582 11.6705 69.9219 10.7955 69.081 10.1364C68.2401 9.47727 67.2135 9.14773 66.0014 9.14773C64.7969 9.14773 63.7704 9.47727 62.9219 10.1364C62.081 10.7955 61.4408 11.6705 61.0014 12.7614C60.5696 13.8523 60.3537 15.0492 60.3537 16.3523C60.3537 17.6553 60.5696 18.8485 61.0014 19.9318C61.4408 21.0152 62.081 21.8826 62.9219 22.5341C63.7628 23.1856 64.7893 23.5114 66.0014 23.5114ZM80.1463 14.0909V25H78.1236V7.54545H80.0895V10.2841H80.2713C80.6804 9.39015 81.3168 8.67424 82.1804 8.13636C83.0516 7.59091 84.1274 7.31818 85.4077 7.31818C86.5819 7.31818 87.6122 7.56439 88.4986 8.05682C89.3925 8.54167 90.0857 9.25758 90.5781 10.2045C91.0781 11.1515 91.3281 12.3144 91.3281 13.6932V25H89.3054V13.8182C89.3054 12.3864 88.9039 11.2538 88.1009 10.4205C87.3054 9.58712 86.2372 9.17045 84.8963 9.17045C83.9796 9.17045 83.1652 9.36742 82.4531 9.76136C81.741 10.1553 81.1766 10.7235 80.7599 11.4659C80.3509 12.2008 80.1463 13.0758 80.1463 14.0909ZM103.473 25.3636C101.912 25.3636 100.553 24.9735 99.3935 24.1932C98.242 23.4129 97.348 22.3447 96.7116 20.9886C96.0753 19.6326 95.7571 18.0871 95.7571 16.3523C95.7571 14.6023 96.0791 13.0455 96.723 11.6818C97.3745 10.3182 98.276 9.25 99.4276 8.47727C100.579 7.69697 101.916 7.30682 103.439 7.30682C104.606 7.30682 105.662 7.53409 106.609 7.98864C107.556 8.43561 108.337 9.06818 108.95 9.88636C109.571 10.697 109.962 11.6439 110.121 12.7273H108.075C107.863 11.7424 107.352 10.9015 106.541 10.2045C105.738 9.5 104.715 9.14773 103.473 9.14773C102.359 9.14773 101.375 9.45076 100.518 10.0568C99.6624 10.6553 98.992 11.4924 98.5071 12.5682C98.0298 13.6364 97.7912 14.875 97.7912 16.2841C97.7912 17.7008 98.026 18.9545 98.4957 20.0455C98.9654 21.1288 99.6245 21.9773 100.473 22.5909C101.329 23.2045 102.329 23.5114 103.473 23.5114C104.246 23.5114 104.95 23.3674 105.587 23.0795C106.231 22.7841 106.768 22.3674 107.2 21.8295C107.64 21.2917 107.935 20.6515 108.087 19.9091H110.132C109.981 20.9621 109.606 21.9015 109.007 22.7273C108.416 23.5455 107.647 24.1894 106.7 24.6591C105.761 25.1288 104.685 25.3636 103.473 25.3636ZM121.524 25.3636C119.895 25.3636 118.486 24.9848 117.297 24.2273C116.107 23.4621 115.187 22.4053 114.536 21.0568C113.892 19.7008 113.57 18.1402 113.57 16.375C113.57 14.6174 113.892 13.0568 114.536 11.6932C115.187 10.322 116.085 9.25 117.229 8.47727C118.38 7.69697 119.71 7.30682 121.217 7.30682C122.164 7.30682 123.077 7.48106 123.956 7.82954C124.835 8.17045 125.623 8.69697 126.32 9.40909C127.024 10.1136 127.581 11.0038 127.99 12.0795C128.399 13.1477 128.604 14.4129 128.604 15.875V16.875H114.967V15.0909H126.536C126.536 13.9697 126.308 12.9621 125.854 12.0682C125.407 11.1667 124.782 10.4545 123.979 9.93182C123.183 9.40909 122.263 9.14773 121.217 9.14773C120.111 9.14773 119.138 9.44318 118.297 10.0341C117.456 10.625 116.797 11.4053 116.32 12.375C115.85 13.3447 115.611 14.4053 115.604 15.5568V16.625C115.604 18.0114 115.842 19.2235 116.32 20.2614C116.804 21.2917 117.49 22.0909 118.376 22.6591C119.263 23.2273 120.312 23.5114 121.524 23.5114C122.35 23.5114 123.073 23.3826 123.695 23.125C124.323 22.8674 124.85 22.5227 125.274 22.0909C125.706 21.6515 126.032 21.1705 126.251 20.6477L128.172 21.2727C127.907 22.0076 127.471 22.6856 126.865 23.3068C126.267 23.928 125.517 24.428 124.615 24.8068C123.721 25.178 122.691 25.3636 121.524 25.3636ZM133.061 31.5455V7.54545H135.027V10.875H135.266C135.508 10.3523 135.841 9.81818 136.266 9.27273C136.69 8.7197 137.25 8.25379 137.947 7.875C138.652 7.49621 139.538 7.30682 140.607 7.30682C142.046 7.30682 143.304 7.68561 144.379 8.44318C145.463 9.19318 146.304 10.2462 146.902 11.6023C147.508 12.9508 147.811 14.5227 147.811 16.3182C147.811 18.1212 147.508 19.7008 146.902 21.0568C146.304 22.4129 145.463 23.4697 144.379 24.2273C143.304 24.9848 142.054 25.3636 140.629 25.3636C139.576 25.3636 138.694 25.1742 137.982 24.7955C137.277 24.4167 136.705 23.9508 136.266 23.3977C135.834 22.8371 135.5 22.2917 135.266 21.7614H135.084V31.5455H133.061ZM135.061 16.2841C135.061 17.6932 135.269 18.9432 135.686 20.0341C136.11 21.1174 136.716 21.9697 137.504 22.5909C138.3 23.2045 139.262 23.5114 140.391 23.5114C141.55 23.5114 142.527 23.1932 143.322 22.5568C144.125 21.9129 144.735 21.0455 145.152 19.9545C145.576 18.8636 145.788 17.6402 145.788 16.2841C145.788 14.9432 145.58 13.7348 145.163 12.6591C144.754 11.5833 144.148 10.7311 143.345 10.1023C142.542 9.46591 141.557 9.14773 140.391 9.14773C139.254 9.14773 138.288 9.45455 137.493 10.0682C136.697 10.6742 136.091 11.5152 135.675 12.5909C135.266 13.6591 135.061 14.8902 135.061 16.2841ZM159.124 7.54545V9.30682H150.794V7.54545H159.124ZM153.396 3.36364H155.43V20.4432C155.43 21.1705 155.555 21.7424 155.805 22.1591C156.055 22.5682 156.381 22.8598 156.783 23.0341C157.184 23.2008 157.612 23.2841 158.067 23.2841C158.332 23.2841 158.559 23.2689 158.749 23.2386C158.938 23.2008 159.105 23.1629 159.249 23.125L159.68 24.9545C159.483 25.0303 159.241 25.0985 158.953 25.1591C158.665 25.2273 158.309 25.2614 157.885 25.2614C157.143 25.2614 156.427 25.0985 155.737 24.7727C155.055 24.447 154.495 23.9621 154.055 23.3182C153.616 22.6742 153.396 21.875 153.396 20.9205V3.36364Z" fill="black"/>
</svg>
