<svg xmlns:xlink="http://www.w3.org/1999/xlink" xmlns="http://www.w3.org/2000/svg" viewBox="0 0 36 36" class="icon icon-margin" style="height: 20px; width: auto; fill: rgb(135, 143, 147);" width="36"  height="36" ><title>Document</title><g fill-rule="evenodd" fill="#878F93"><path d="M6.9996,3.0003 L6.9996,33.0003 L29.0006,33.0003 L29.0006,11.5863 L20.4136,3.0003 L6.9996,3.0003 Z M9.0006,5.0003 L19.0006,5.0003 L19.0006,13.0003 L27.0006,13.0003 L27.0006,31.0003 L9.0006,31.0003 L9.0006,5.0003 Z M20.9996,6.4143 L25.5856,11.0003 L20.9996,11.0003 L20.9996,6.4143 Z" fill="#878F93"></path><path d="M11 27L25 27 25 25 11 25zM11 23L25 23 25 21 11 21zM11 19L18 19 18 17 11 17z" fill="#878F93"></path></g></svg>